# File created by Blade
# Date/Time:  Fri Jan 16 19:32:17 2015
# Frame Rate: 120.000 fps
#------------------------------------------------------
:FULLY-SPECIFIED
:DEGREES
178
root 19.279178 35.509738 -20.189071 7.104086 12.641837 0.735904
Spine -23.351632 -13.174254 2.170685
Head 21.984495 5.705166 -2.541858
LeftShoulder -4.774820 1.348995 -6.348303
LeftArm -88.004762 52.780919 -176.860470
LeftForeArm 53.840156 0.000000 118.533307
LeftHand 7.317294 -0.000000 -21.522933
LeftHandThumb1 -26.253704 0.000000 33.147579
RightShoulder -14.927706 17.780928 -33.385150
RightArm -202.210572 63.383259 -215.569685
RightForeArm 48.382042 -0.000000 138.575542
RightHand 2.492488 -0.000000 -33.315416
RightHandThumb1 -24.326973 -0.000000 -32.862282
LeftUpLeg 1.075784 0.060980 1.528128
LeftLeg -6.037270 -0.000000 0.000000
LeftFoot -19.279814 24.902309 -14.924423
LeftToeBase 25.748740 -0.000000 -0.000000
RightUpLeg 4.097318 -16.939827 -1.841891
RightLeg -3.560035 -0.000000 0.000000
RightFoot -24.560197 -25.399040 20.773035
RightToeBase 24.050962 -0.000000 -0.000000
179
root 19.282171 35.509937 -20.184420 7.113195 12.751431 0.745271
Spine -23.453039 -13.298189 2.162998
Head 22.179406 5.681361 -2.434595
LeftShoulder -4.504779 1.113120 -6.283161
LeftArm -88.056492 52.978699 -177.200294
LeftForeArm 53.991862 -0.000000 118.761250
LeftHand 7.719121 -0.000000 -20.861203
LeftHandThumb1 -26.253704 0.000000 33.147579
RightShoulder -15.186306 18.631477 -33.815852
RightArm -203.506522 63.772429 -217.059477
RightForeArm 48.638410 -0.000000 140.249703
RightHand 2.305198 -0.000000 -33.954525
RightHandThumb1 -24.326973 -0.000000 -32.862282
LeftUpLeg 1.070012 0.000559 1.526553
LeftLeg -6.057453 -0.000000 0.000000
LeftFoot -19.264805 24.858373 -14.936297
LeftToeBase 25.756889 -0.000000 -0.000000
RightUpLeg 4.126475 -17.021759 -1.845799
RightLeg -3.580341 -0.000000 0.000000
RightFoot -24.568205 -25.409303 20.816551
RightToeBase 24.044440 -0.000000 -0.000000
180
root 19.282781 35.509142 -20.182048 7.125350 12.898985 0.745205
Spine -23.540211 -13.488548 2.171055
Head 22.322363 5.669364 -2.269687
LeftShoulder -4.217321 0.856156 -6.228854
LeftArm -88.071437 53.141008 -177.672164
LeftForeArm 54.306868 -0.000000 118.939650
LeftHand 7.732935 -0.000000 -20.669195
LeftHandThumb1 -26.253704 0.000000 33.147579
RightShoulder -15.375827 18.932300 -34.007061
RightArm -204.071428 63.798384 -217.939750
RightForeArm 48.700258 0.000000 141.774076
RightHand 2.419819 -0.000000 -34.184416
RightHandThumb1 -24.326973 -0.000000 -32.862282
LeftUpLeg 1.044165 -0.106492 1.543763
LeftLeg -6.063705 -0.000000 0.000000
LeftFoot -19.245901 24.827959 -14.900202
LeftToeBase 25.794792 -0.000000 -0.000000
RightUpLeg 4.155116 -17.125105 -1.831059
RightLeg -3.606578 -0.000000 0.000000
RightFoot -24.589668 -25.429830 20.853262
RightToeBase 24.086502 -0.000000 -0.000000
181
root 19.288863 35.508617 -20.181045 7.188132 12.956946 0.741939
Spine -23.701604 -13.655083 2.237868
Head 22.431880 5.710008 -2.157874
LeftShoulder -4.085737 0.686337 -6.213948
LeftArm -88.166302 53.474792 -178.076431
LeftForeArm 54.440855 0.000000 119.223730
LeftHand 7.832785 0.000000 -20.667307
LeftHandThumb1 -26.253704 0.000000 33.147579
RightShoulder -15.428265 18.836734 -33.993952
RightArm -204.067233 63.561699 -218.482200
RightForeArm 48.545442 -0.000000 143.266074
RightHand 2.292832 0.000000 -34.739269
RightHandThumb1 -24.326973 -0.000000 -32.862282
LeftUpLeg 0.993650 -0.099604 1.542070
LeftLeg -6.098486 -0.000000 0.000000
LeftFoot -19.214272 24.786974 -14.860555
LeftToeBase 25.827592 -0.000000 -0.000000
RightUpLeg 4.094928 -17.123439 -1.813606
RightLeg -3.591280 -0.000000 0.000000
RightFoot -24.605100 -25.469720 20.873011
RightToeBase 24.057105 -0.000000 -0.000000
182
root 19.292864 35.508196 -20.182815 7.249367 13.019233 0.725161
Spine -23.863454 -13.834570 2.326984
Head 22.521104 5.792626 -2.037350
LeftShoulder -3.861382 0.485313 -6.334492
LeftArm -88.045138 53.561207 -178.263270
LeftForeArm 54.032561 -0.000000 119.371735
LeftHand 7.753720 -0.000000 -20.765728
LeftHandThumb1 -26.253704 0.000000 33.147579
RightShoulder -15.500228 19.038383 -34.071622
RightArm -204.553649 63.740418 -219.474008
RightForeArm 48.128579 -0.000000 144.735447
RightHand 2.144545 -0.000000 -35.720438
RightHandThumb1 -24.326973 -0.000000 -32.862282
LeftUpLeg 0.927027 -0.133766 1.557104
LeftLeg -6.117375 -0.000000 0.000000
LeftFoot -19.201175 24.781319 -14.829829
LeftToeBase 25.808007 -0.000000 -0.000000
RightUpLeg 4.020167 -17.120067 -1.775529
RightLeg -3.563465 -0.000000 0.000000
RightFoot -24.649097 -25.505667 20.938698
RightToeBase 24.055113 -0.000000 -0.000000
183
root 19.300532 35.507714 -20.181155 7.295361 13.080845 0.705963
Spine -24.011651 -14.028771 2.448542
Head 22.565419 5.918040 -1.955083
LeftShoulder -3.721486 0.334533 -6.381779
LeftArm -88.112004 53.918278 -178.700845
LeftForeArm 53.920320 -0.000000 119.504306
LeftHand 7.892677 0.000000 -20.780989
LeftHandThumb1 -26.253704 0.000000 33.147579
RightShoulder -15.568218 18.955357 -34.080263
RightArm -204.718412 63.754551 -220.156387
RightForeArm 47.658797 -0.000000 146.088113
RightHand 2.230801 -0.000000 -36.163414
RightHandThumb1 -24.326973 -0.000000 -32.862282
LeftUpLeg 0.893036 -0.170734 1.571662
LeftLeg -6.156114 -0.000000 0.000000
LeftFoot -19.178814 24.769110 -14.778592
LeftToeBase 25.858093 -0.000000 -0.000000
RightUpLeg 3.973450 -17.141013 -1.746420
RightLeg -3.550579 -0.000000 0.000000
RightFoot -24.660563 -25.505239 21.033003
RightToeBase 23.936503 -0.000000 -0.000000
184
root 19.308852 35.506793 -20.178579 7.333459 13.118536 0.695876
Spine -24.135369 -14.200471 2.557761
Head 22.558344 6.044303 -1.885238
LeftShoulder -3.642550 0.202453 -6.432631
LeftArm -88.374422 54.404293 -179.360743
LeftForeArm 53.906012 -0.000000 119.580173
LeftHand 8.275110 -0.000000 -20.412024
LeftHandThumb1 -26.253704 0.000000 33.147579
RightShoulder -15.613816 18.518882 -33.929088
RightArm -204.308489 63.549285 -220.415868
RightForeArm 46.947678 -0.000000 147.311495
RightHand 1.983810 -0.000000 -36.790862
RightHandThumb1 -24.326973 -0.000000 -32.862282
LeftUpLeg 0.875488 -0.191744 1.574137
LeftLeg -6.196565 -0.000000 0.000000
LeftFoot -19.168220 24.750072 -14.745193
LeftToeBase 25.841023 -0.000000 -0.000000
RightUpLeg 3.931207 -17.162156 -1.735532
RightLeg -3.523408 -0.000000 0.000000
RightFoot -24.682020 -25.540264 21.028400
RightToeBase 24.004007 -0.000000 -0.000000
185
root 19.317824 35.506482 -20.177335 7.392327 13.155656 0.700866
Spine -24.265628 -14.359311 2.637759
Head 22.523417 6.138123 -1.807329
LeftShoulder -3.583988 0.080338 -6.444450
LeftArm -88.889381 54.980922 -180.312270
LeftForeArm 54.045345 -0.000000 119.673195
LeftHand 8.454499 -0.000000 -20.179450
LeftHandThumb1 -26.253704 0.000000 33.147579
RightShoulder -15.601961 17.952047 -33.675532
RightArm -203.533982 63.297385 -220.383134
RightForeArm 46.474652 0.000000 148.359836
RightHand 2.143533 0.000000 -37.072938
RightHandThumb1 -24.326973 -0.000000 -32.862282
LeftUpLeg 0.842538 -0.225336 1.554887
LeftLeg -6.257336 -0.000000 0.000000
LeftFoot -19.126533 24.824740 -14.690613
LeftToeBase 25.858072 -0.000000 -0.000000
RightUpLeg 3.861616 -17.215114 -1.733217
RightLeg -3.487228 -0.000000 0.000000
RightFoot -24.695361 -25.497654 21.071684
RightToeBase 23.923229 -0.000000 -0.000000
186
root 19.326008 35.505256 -20.176142 7.422149 13.162434 0.684322
Spine -24.356771 -14.471906 2.744467
Head 22.462906 6.224044 -1.800721
LeftShoulder -3.534362 -0.052861 -6.477697
LeftArm -89.426597 55.618458 -181.346569
LeftForeArm 54.199091 -0.000000 119.778296
LeftHand 8.707142 0.000000 -20.045635
LeftHandThumb1 -26.253704 0.000000 33.147579
RightShoulder -15.555021 17.150036 -33.301257
RightArm -202.303340 62.905927 -220.050906
RightForeArm 45.808989 -0.000000 149.234681
RightHand 2.057030 -0.000000 -37.397281
RightHandThumb1 -24.326973 -0.000000 -32.862282
LeftUpLeg 0.839642 -0.265700 1.574085
LeftLeg -6.291924 -0.000000 0.000000
LeftFoot -19.130466 24.761267 -14.702918
LeftToeBase 25.855579 -0.000000 -0.000000
RightUpLeg 3.817969 -17.217698 -1.715525
RightLeg -3.462630 -0.000000 0.000000
RightFoot -24.716955 -25.550777 21.051940
RightToeBase 24.015204 -0.000000 -0.000000
187
root 19.333880 35.504809 -20.175012 7.464262 13.165144 0.682945
Spine -24.458714 -14.579314 2.815312
Head 22.401624 6.287599 -1.765137
LeftShoulder -3.426040 -0.359545 -6.397840
LeftArm -89.886199 56.095896 -182.604554
LeftForeArm 54.469164 -0.000000 119.640366
LeftHand 8.563882 0.000000 -19.336317
LeftHandThumb1 -26.253704 0.000000 33.147579
RightShoulder -15.538562 16.821208 -33.091895
RightArm -201.721048 63.005193 -220.198089
RightForeArm 45.118066 -0.000000 149.934062
RightHand 1.964286 -0.000000 -37.701112
RightHandThumb1 -24.326973 -0.000000 -32.862282
LeftUpLeg 0.821053 -0.284123 1.568773
LeftLeg -6.322840 -0.000000 0.000000
LeftFoot -19.126472 24.741838 -14.698704
LeftToeBase 25.911276 -0.000000 -0.000000
RightUpLeg 3.763597 -17.242615 -1.708195
RightLeg -3.441251 -0.000000 0.000000
RightFoot -24.733277 -25.566918 21.057489
RightToeBase 24.040674 -0.000000 -0.000000
188
root 19.343272 35.503972 -20.172932 7.509600 13.149163 0.683102
Spine -24.570620 -14.627527 2.888246
Head 22.334930 6.332356 -1.783666
LeftShoulder -3.344562 -0.577132 -6.440734
LeftArm -90.543963 56.675808 -183.821764
LeftForeArm 54.638434 -0.000000 119.721704
LeftHand 8.453421 -0.000000 -19.003949
LeftHandThumb1 -26.253704 0.000000 33.147579
RightShoulder -15.617557 16.782046 -33.067317
RightArm -201.706591 63.264458 -220.711404
RightForeArm 44.725858 0.000000 150.507742
RightHand 1.875315 -0.000000 -37.845563
RightHandThumb1 -24.326973 -0.000000 -32.862282
LeftUpLeg 0.812552 -0.326341 1.559387
LeftLeg -6.371015 -0.000000 0.000000
LeftFoot -19.117015 24.770895 -14.704873
LeftToeBase 25.886398 -0.000000 -0.000000
RightUpLeg 3.709363 -17.262546 -1.706583
RightLeg -3.424664 -0.000000 0.000000
RightFoot -24.727486 -25.574274 21.025616
RightToeBase 24.024704 -0.000000 -0.000000
189
root 19.352715 35.503665 -20.170981 7.557678 13.114451 0.673414
Spine -24.688832 -14.653097 2.992783
Head 22.257091 6.403646 -1.856658
LeftShoulder -3.269231 -0.834277 -6.563037
LeftArm -91.158148 57.169164 -184.758311
LeftForeArm 54.794401 -0.000000 120.110380
LeftHand 8.356573 -0.000000 -18.943873
LeftHandThumb1 -26.253704 0.000000 33.147579
RightShoulder -15.681651 16.731491 -33.066001
RightArm -201.606783 63.401553 -221.067442
RightForeArm 44.637947 -0.000000 150.909861
RightHand 1.820571 -0.000000 -37.776840
RightHandThumb1 -24.326973 -0.000000 -32.862282
LeftUpLeg 0.792339 -0.337571 1.557050
LeftLeg -6.403677 -0.000000 0.000000
LeftFoot -19.125395 24.789862 -14.675626
LeftToeBase 25.952683 -0.000000 -0.000000
RightUpLeg 3.648158 -17.246384 -1.692138
RightLeg -3.416640 -0.000000 0.000000
RightFoot -24.729567 -25.563596 21.074282
RightToeBase 23.940399 -0.000000 -0.000000
190
root 19.362288 35.503788 -20.168893 7.606994 13.098163 0.675735
Spine -24.811137 -14.696807 3.079645
Head 22.201851 6.462043 -1.938897
LeftShoulder -3.159172 -1.067768 -6.680982
LeftArm -91.667385 57.677351 -185.726493
LeftForeArm 54.604561 -0.000000 120.404954
LeftHand 8.360518 -0.000000 -18.522150
LeftHandThumb1 -26.253704 0.000000 33.147579
RightShoulder -15.724723 16.615070 -33.018961
RightArm -201.401610 63.463895 -221.327902
RightForeArm 44.823549 -0.000000 151.108223
RightHand 1.990284 -0.000000 -37.678303
RightHandThumb1 -24.326973 -0.000000 -32.862282
LeftUpLeg 0.758087 -0.374516 1.543228
LeftLeg -6.412025 -0.000000 0.000000
LeftFoot -19.142095 24.818679 -14.703340
LeftToeBase 25.890657 -0.000000 -0.000000
RightUpLeg 3.595421 -17.263636 -1.693973
RightLeg -3.409238 -0.000000 0.000000
RightFoot -24.715194 -25.556258 21.064118
RightToeBase 23.905754 -0.000000 -0.000000
